<?xml version="1.0" encoding="UTF-8" standalone="no"?>
<!-- Created with Inkscape (http://www.inkscape.org/) -->

<svg
   width="1000"
   height="300"
   viewBox="0 0 264.58333 79.375002"
   version="1.1"
   id="svg5"
   inkscape:version="1.1 (c68e22c387, 2021-05-23)"
   sodipodi:docname="Amplyst-svg-header-purple.svg"
   xmlns:inkscape="http://www.inkscape.org/namespaces/inkscape"
   xmlns:sodipodi="http://sodipodi.sourceforge.net/DTD/sodipodi-0.dtd"
   xmlns="http://www.w3.org/2000/svg"
   xmlns:svg="http://www.w3.org/2000/svg">
  <sodipodi:namedview
     id="namedview7"
     pagecolor="#ffffff"
     bordercolor="#666666"
     borderopacity="1.0"
     inkscape:pageshadow="2"
     inkscape:pageopacity="0.0"
     inkscape:pagecheckerboard="0"
     inkscape:document-units="mm"
     showgrid="false"
     units="px"
     inkscape:snap-midpoints="true"
     inkscape:snap-object-midpoints="false"
     inkscape:snap-bbox="false"
     inkscape:snap-bbox-midpoints="true"
     inkscape:snap-bbox-edge-midpoints="true"
     inkscape:snap-page="false"
     inkscape:zoom="1.4422426"
     inkscape:cx="457.27397"
     inkscape:cy="148.03335"
     inkscape:window-width="2560"
     inkscape:window-height="1387"
     inkscape:window-x="2552"
     inkscape:window-y="-8"
     inkscape:window-maximized="1"
     inkscape:current-layer="layer1" />
  <defs
     id="defs2">
    <rect
       x="38.57456"
       y="30.859648"
       width="803.63666"
       height="253.30627"
       id="rect5254" />
  </defs>
  <g
     inkscape:label="Layer 1"
     inkscape:groupmode="layer"
     id="layer1">
    <g
       id="g1476">
      <path
         style="fill:#663bad;stroke:none;stroke-width:0.693365;fill-opacity:1"
         d="m 65.176275,167.68804 c -2.255476,-0.82854 -6.400885,-3.69921 -7.815969,-5.41251 -3.748152,-4.53801 -4.927013,-10.05866 -3.324793,-15.5701 4.788303,-16.47118 27.89369,-16.47118 32.681993,0 3.05913,10.52304 -4.524254,20.96561 -15.647632,21.54731 -2.097428,0.10968 -4.749548,-0.14443 -5.893599,-0.5647 z"
         id="path122"
         transform="scale(0.26458333)" />
      <path
         style="fill:#663bad;fill-opacity:1;stroke-width:0.693365"
         d="M 64.947559,97.332308 C 60.753089,96.043627 56.129196,91.565336 54.44811,87.163475 49.560602,74.365716 61.836806,60.872611 74.88338,64.702522 c 16.313204,4.788852 16.591529,27.902765 0.394177,32.735124 -4.169402,1.243909 -5.999124,1.225251 -10.329998,-0.105338 z"
         id="path1050"
         transform="scale(0.26458333)" />
      <path
         style="fill:#663bad;fill-opacity:1;stroke-width:0.693365"
         d="m 117.87199,97.398088 c -15.71229,-4.907579 -15.50144,-27.874415 0.29918,-32.588411 5.29979,-1.581152 162.07358,-1.525857 167.41053,0.05905 6.30274,1.871714 10.94235,7.292792 12.22981,14.289719 1.10336,5.996412 -3.37433,14.072275 -9.67121,17.442793 l -2.82076,1.509859 -82.1637,0.13077 c -68.90696,0.10967 -82.66713,-0.02647 -85.28385,-0.843776 z"
         id="path1089"
         transform="scale(0.26458333)" />
      <path
         style="fill:#663bad;fill-opacity:1;stroke-width:0.693365"
         d="m 118.56086,167.83976 c -5.19361,-1.57982 -10.30386,-6.31173 -11.83864,-10.96214 -1.35811,-4.11513 -0.52734,-10.64935 1.84243,-14.49116 2.60596,-4.22471 7.98393,-7.61774 13.02232,-8.21595 1.96094,-0.23283 39.44696,-0.32908 83.30228,-0.21389 l 79.73693,0.20944 3.29163,1.62102 c 6.52837,3.21502 10.94265,11.11813 9.85584,17.6454 -0.99857,5.9972 -4.93748,10.99913 -10.7207,13.61394 -3.08306,1.39397 -4.09232,1.4102 -84.93716,1.36636 -44.99937,-0.0244 -82.59908,-0.28226 -83.55493,-0.57302 z"
         id="path1128"
         transform="scale(0.26458333)" />
      <path
         style="fill:#663bad;fill-opacity:1;stroke-width:0.693365"
         d="m 116.10002,236.87159 c -3.92984,-1.82994 -8.18562,-6.35182 -9.3778,-9.96414 -0.43463,-1.31696 -0.66517,-4.35869 -0.51231,-6.75939 0.36138,-5.67533 3.06072,-10.22253 7.81236,-13.16039 l 3.39395,-2.09842 83.45724,-0.1816 83.45725,-0.1816 3.47138,1.49334 c 6.53469,2.81115 11.07389,10.74332 9.98174,17.44291 -0.65089,3.99275 -3.54584,9.15188 -6.32479,11.27149 -5.19067,3.95911 -1.02541,3.78422 -89.95045,3.77687 l -81.90319,-0.007 z"
         id="path1167"
         transform="scale(0.26458333)" />
      <path
         style="fill:#663bad;fill-opacity:1;stroke-width:0.693365"
         d="m 63.442863,236.86494 c -6.329116,-2.99209 -10.023332,-8.77174 -10.023332,-15.68162 0,-4.69911 1.675164,-8.49709 5.260467,-11.92669 3.515464,-3.36279 6.931232,-4.71751 11.847582,-4.69884 14.475645,0.055 22.181078,16.83211 12.776748,27.81896 -5.017892,5.86228 -13.094345,7.68735 -19.861465,4.48819 z"
         id="path1206"
         transform="scale(0.26458333)" />
    </g>
    <text
       xml:space="preserve"
       transform="matrix(0.26458333,0,0,0.26458333,71.984267,-4.1961257)"
       id="text5252"
       style="font-style:normal;font-weight:normal;font-size:200px;line-height:1.25;font-family:sans-serif;white-space:pre;shape-inside:url(#rect5254);display:none;fill:#000000;fill-opacity:1;stroke:none" />
    <path
       d="m 32.53772,16.834399 h 41.747959 a 4.638665,4.638665 0 0 1 0,9.27733 H 32.53772 a 4.638665,4.638665 0 1 1 0,-9.27733 z m 0,37.109285 h 41.747959 a 4.638665,4.638665 0 0 1 0,9.27733 H 32.53772 a 4.638665,4.638665 0 1 1 0,-9.27733 z m 0,-18.554642 h 41.747959 a 4.638665,4.638665 0 0 1 0,9.27733 H 32.53772 a 4.638665,4.638665 0 1 1 0,-9.27733 z M 18.621728,16.834399 a 4.638665,4.638665 0 1 1 0,9.27733 4.638665,4.638665 0 0 1 0,-9.27733 z m 0,37.109285 a 4.638665,4.638665 0 1 1 0,9.27733 4.638665,4.638665 0 0 1 0,-9.27733 z m 0,-18.554642 a 4.638665,4.638665 0 1 1 0,9.27733 4.638665,4.638665 0 0 1 0,-9.27733 z"
       id="path36365"
       style="display:none;stroke-width:4.63866" />
    <g
       id="g1561"
       transform="translate(-1.6510746,4.2194123)">
      <path
         style="fill:#663bad;fill-opacity:1;stroke-width:0.693365"
         d="m 343.90885,221.60428 c -16.80149,-3.10468 -20.01645,-15.88291 -11.42997,-45.42971 4.07673,-14.02836 13.06694,-35.0393 21.05878,-49.21628 1.94982,-3.45883 3.54512,-6.4933 3.54512,-6.74325 0,-0.79725 -8.82018,0.41574 -13.47313,1.85289 -2.46998,0.7629 -5.4524,2.19616 -6.62761,3.18503 -2.25688,1.89905 -4.64937,5.79295 -3.55929,5.79295 0.83587,0 2.16573,3.83731 2.16573,6.2492 0,4.14293 -5.72764,7.31146 -12.24034,6.77138 -3.99289,-0.33112 -6.42042,-1.69205 -8.86444,-4.9696 -2.024,-2.71427 -1.92663,-9.38153 0.19646,-13.45316 5.43635,-10.42574 21.44873,-17.01431 40.49298,-16.66152 l 8.83751,0.16371 5.15488,-7.59751 c 18.34439,-27.036882 38.90896,-45.678149 54.98706,-49.844402 5.35226,-1.386911 14.66146,-1.396039 19.94612,-0.01956 2.25694,0.587858 4.19218,1.157483 4.30053,1.265832 0.10835,0.10835 -6.82092,33.071605 -15.39837,73.25168 -8.57745,40.18008 -15.59537,73.15196 -15.59537,73.27087 0,0.1189 -6.24028,0.21618 -13.86729,0.21618 -11.13867,0 -13.86729,-0.18309 -13.86729,-0.9305 0,-0.51178 3.29432,-16.44895 7.32071,-35.41592 4.02639,-18.96698 7.22453,-34.95864 7.10699,-35.53703 -0.41138,-2.02417 -13.88583,-6.45322 -22.92829,-7.53652 l -3.99371,-0.47846 -2.14766,4.73655 c -9.72266,21.44288 -18.70743,49.55065 -22.14189,69.26828 -1.83974,10.56212 -2.05475,22.52453 -0.47046,26.17452 l 1.12859,2.60011 -2.56474,-0.0665 c -1.4106,-0.0365 -4.59283,-0.44124 -7.07161,-0.89927 z m 62.6834,-104.25232 c 0.90247,-2.92763 11.41724,-53.189544 11.17742,-53.429372 -0.50728,-0.507283 -6.73529,4.188138 -10.35092,7.803765 -6.92335,6.923354 -14.53836,17.922798 -21.82703,31.527897 -2.33265,4.35414 -4.24118,8.12635 -4.24118,8.38268 0,0.25633 2.1061,0.85745 4.68022,1.33582 2.57411,0.47838 7.80035,1.89992 11.61385,3.159 8.29795,2.73966 8.47195,2.76339 8.94764,1.22021 z"
         id="path1245"
         transform="scale(0.26458333)" />
      <path
         style="fill:#663bad;fill-opacity:1;stroke-width:0.693365"
         d="m 577.23968,247.98804 c 2.29871,-9.69226 12.00854,-56.96223 11.75319,-57.21759 -0.18742,-0.18742 -1.19555,0.47358 -2.24029,1.46889 -5.84621,5.56963 -16.39436,9.34828 -23.7405,8.50454 -8.99294,-1.0329 -14.42844,-4.39927 -17.8655,-11.06465 -1.48734,-2.88435 -1.85766,-4.68622 -2.0753,-10.09779 -0.27896,-6.93674 0.0347,-8.83938 5.70768,-34.62274 3.63643,-16.52732 3.33781,-24.754 -0.9825,-27.06616 -1.9207,-1.02793 -6.02981,-0.87823 -8.31382,0.30288 -3.17713,1.64295 -7.40821,7.01307 -9.35285,11.8707 -1.02121,2.55092 -4.6642,18.00372 -8.37136,35.50952 -3.60985,17.04628 -6.73098,31.69526 -6.93583,32.5533 -0.37087,1.55337 -0.43196,1.56007 -14.22655,1.56007 -7.68755,0 -13.85408,-0.27614 -13.85408,-0.6204 0,-0.34122 3.30037,-16.17593 7.33416,-35.18825 6.08588,-28.68436 7.29213,-35.35577 7.0872,-39.19714 -0.32624,-6.11526 -1.52054,-7.5046 -6.4511,-7.5046 -2.87406,0 -4.16283,0.40626 -6.37703,2.01022 -2.92905,2.12178 -6.07965,6.71337 -8.08263,11.77935 -0.89796,2.27115 -15.00491,66.5758 -15.00491,68.3979 0,0.17761 -6.33769,0.32292 -14.08377,0.32292 h -14.08377 l 10.47957,-49.40223 10.47957,-49.40223 14.00467,-0.18769 c 7.70257,-0.10324 13.9998,0.0528 13.99384,0.34668 -0.006,0.29391 -0.46286,2.40646 -1.01535,4.69457 -0.55248,2.2881 -1.01563,4.42071 -1.02921,4.73913 -0.0136,0.31843 1.45737,-0.73033 3.26878,-2.33057 9.77347,-8.634071 22.14797,-11.145417 31.90054,-6.47406 4.31848,2.0685 6.73815,5.00742 8.79145,10.6781 l 1.50663,4.16091 3.54666,-4.42586 c 4.05021,-5.05424 10.49448,-9.66708 15.63984,-11.19509 5.13644,-1.525354 13.47944,-1.358021 18.07818,0.36259 5.01748,1.87728 9.65167,6.78748 11.14185,11.80542 2.2658,7.62979 1.41386,15.53236 -4.17707,38.74664 -4.05413,16.83329 -4.73257,21.3327 -3.76077,24.94166 1.03273,3.83528 3.33114,5.25928 8.3781,5.19071 6.48698,-0.0881 9.35786,-2.50242 14.04619,-11.81219 2.1281,-4.22584 3.39702,-9.36783 9.82667,-39.82015 4.06067,-19.23224 7.53851,-35.513739 7.72854,-36.181102 0.31422,-1.103469 1.59751,-1.213388 14.16609,-1.213388 10.60221,0 13.81707,0.201827 13.80556,0.866706 -0.008,0.476688 -0.63229,3.659026 -1.38673,7.071864 -0.75445,3.41284 -1.37172,6.49201 -1.37172,6.8426 0,0.35059 1.01404,-0.13536 2.25343,-1.07989 3.83481,-2.92249 9.48734,-5.44516 14.64657,-6.53662 12.78684,-2.705116 24.11935,2.6259 28.07893,13.20883 5.24947,14.03049 2.53605,41.59703 -5.8336,59.26556 -9.10256,19.21568 -21.66506,28.05936 -39.8387,28.04539 -7.75392,-0.006 -11.66327,-1.21644 -15.25735,-4.72422 l -2.43012,-2.37177 -5.1969,24.5046 -5.1969,24.50459 -11.09383,2.62758 c -6.10161,1.44517 -12.73072,3.01488 -14.73136,3.48823 -3.56798,0.84419 -3.63073,0.83203 -3.28249,-0.63627 z m 57.18895,-65.07915 c 12.29246,-4.47828 22.20098,-29.53876 21.3858,-54.08869 -0.22468,-6.76658 -0.49495,-8.25116 -1.99315,-10.94821 -3.03787,-5.4688 -8.86722,-6.26585 -15.42236,-2.10871 -5.8214,3.69183 -6.0752,4.40243 -12.62,35.33434 -3.2614,15.41397 -5.75748,28.56839 -5.54685,29.23204 1.14035,3.59294 7.99546,4.83838 14.19656,2.57923 z"
         id="path1284"
         transform="scale(0.26458333)" />
      <path
         style="fill:#663bad;fill-opacity:1;stroke-width:0.693365"
         d="m 765.97204,248.8544 c -8.98571,-2.11588 -14.28381,-8.00419 -14.89562,-16.55497 -0.90028,-12.58268 7.19278,-21.5812 25.95326,-28.8569 l 6.3549,-2.46456 1.15849,-5.20719 c 0.63717,-2.86396 0.98041,-5.38527 0.76277,-5.60291 -0.21764,-0.21764 -1.91628,1.02659 -3.77474,2.76497 -4.30293,4.02489 -8.02012,5.90747 -14.21469,7.19908 -10.95513,2.28421 -20.30176,-1.72771 -24.45435,-10.49669 -0.90295,-1.90676 -1.64478,-4.01285 -1.6485,-4.68022 -0.004,-0.66736 -0.12756,-1.21338 -0.27517,-1.21338 -0.14762,0 -2.56573,2.2736 -5.37358,5.05246 -7.8242,7.74341 -17.17719,11.79513 -27.29285,11.82328 -9.12468,0.0254 -15.75125,-3.97948 -19.19538,-11.60104 -1.41204,-3.12473 -1.59296,-4.5608 -1.53804,-12.20835 0.0609,-8.48182 0.29931,-9.7675 11.15386,-60.15426 6.10039,-28.317966 11.30764,-51.703232 11.57167,-51.967261 0.527,-0.527005 27.65191,-4.324881 28.10035,-3.934454 0.15279,0.133013 -4.90412,24.661947 -11.23756,54.508745 -6.33344,29.84679 -11.67918,55.67096 -11.87943,57.38704 -0.20024,1.71608 0.0204,4.21105 0.49042,5.54439 2.27856,6.46442 15.05682,4.68619 20.84355,-2.9006 3.84613,-5.04253 5.19467,-9.76685 12.03605,-42.16557 l 6.80818,-32.24146 14.11703,-0.18795 14.11703,-0.18794 -0.38983,1.57467 c -0.2144,0.86608 -3.54433,16.39535 -7.39984,34.5095 -5.76833,27.10107 -6.9686,33.75481 -6.7762,37.5641 0.34738,6.87788 3.01066,9.07059 9.06061,7.45972 4.02788,-1.07248 8.70773,-6.03897 11.08764,-11.76676 1.14645,-2.75919 4.40709,-16.47761 8.48145,-35.68383 3.64045,-17.16078 6.78713,-31.74744 6.99263,-32.4148 0.33959,-1.10286 1.64046,-1.21339 14.28087,-1.21339 h 13.90724 l -0.38429,1.90675 c -0.82608,4.0988 -18.60355,87.28266 -18.96717,88.75068 -0.5596,2.25919 1.10486,2.02409 6.7789,-0.95754 3.0532,-1.60441 6.17085,-4.008 8.59512,-6.62649 3.50198,-3.78255 3.8041,-4.37108 3.8041,-7.41033 0,-6.85982 4.37846,-15.47075 9.15876,-18.01214 3.42246,-1.81951 15.93077,-29.57253 23.48332,-52.10401 l 2.67279,-7.973696 13.37063,-1.859462 c 7.35385,-1.022704 13.8688,-1.880743 14.47768,-1.906753 0.952,-0.04067 1.17293,1.530867 1.57735,11.219881 0.25866,6.19695 1.26765,22.03167 2.2422,35.18826 1.01548,13.70898 1.60259,26.08239 1.37527,28.98381 l -0.39664,5.06272 2.94099,-1.73575 c 1.61753,-0.95466 5.15844,-3.35977 7.86866,-5.3447 l 4.9277,-3.60896 5.70549,-26.75924 c 3.13801,-14.71758 5.8686,-27.46127 6.06796,-28.31931 0.33641,-1.44785 0.12825,-1.56007 -2.89377,-1.56007 h -3.25625 l 0.48761,-2.9468 c 0.65717,-3.97151 0.67316,-3.98685 4.15534,-3.98685 3.56262,0 3.03361,1.25372 6.64446,-15.747216 1.23205,-5.800839 2.46333,-10.908184 2.73617,-11.349655 0.42327,-0.684867 27.61122,-4.910983 28.27988,-4.395845 0.12814,0.09873 -1.02175,6.054928 -2.55531,13.235996 -1.53357,7.181067 -2.9992,14.226539 -3.25697,15.656603 l -0.46866,2.600117 h 6.01749 c 5.39885,0 5.98237,0.12475 5.67584,1.21339 -0.1879,0.66736 -0.54573,2.22743 -0.79517,3.46682 l -0.45354,2.25344 -6.01185,0.005 -6.01185,0.005 -6.77974,32.06302 c -3.82046,18.06786 -6.77126,33.66567 -6.7603,35.73469 0.0275,5.1948 1.95941,7.07548 7.26825,7.07548 2.39053,0 3.84501,0.29567 3.84501,0.78162 0,2.06704 -4.68286,9.92402 -7.41686,12.44413 -4.1829,3.85567 -7.22815,5.03893 -13.03739,5.0658 -3.78824,0.0175 -5.70686,-0.37107 -8.74122,-1.77046 -6.64523,-3.06464 -9.52475,-8.33074 -10.22293,-18.69581 l -0.45006,-6.68159 -5.54692,4.47132 c -3.0508,2.45923 -7.88702,5.91597 -10.74715,7.68165 -2.86013,1.76568 -6.49814,4.37886 -8.08449,5.80706 -10.23059,9.21073 -30.6245,12.12535 -42.95061,6.13834 -3.94977,-1.91847 -10.0177,-7.37852 -10.79649,-9.71489 -0.23808,-0.71422 -1.48424,0.0292 -4.38959,2.61871 -4.19263,3.73683 -12.4354,8.42474 -17.38639,9.88816 l -2.83059,0.83667 -1.60536,8.0721 c -3.22764,16.22924 -6.68103,24.59502 -12.5934,30.5074 -7.70512,7.70512 -20.85734,11.50784 -31.29823,9.04929 z m 6.43615,-15.82844 c 2.2328,-1.5676 5.96237,-8.94134 7.21735,-14.26942 1.86243,-7.90701 1.87015,-7.97369 0.92334,-7.97369 -0.49471,0 -3.22745,1.11565 -6.07274,2.47922 -9.21801,4.4176 -13.16178,8.80194 -13.16178,14.63206 0,3.3706 1.49896,5.56227 4.3646,6.38162 2.60891,0.74594 4.34622,0.42328 6.72923,-1.24979 z m 89.3564,-48.28249 c 6.95687,-2.06597 11.15186,-8.52558 11.20146,-17.24842 0.0305,-5.36457 -3.71621,-48.23633 -4.21554,-48.23633 -0.24117,0 -0.83294,1.32606 -1.31505,2.9468 -1.58718,5.33581 -5.7034,15.27141 -10.49009,25.3206 l -4.7124,9.89324 1.58262,1.03698 c 1.75467,1.14969 3.18309,3.8114 3.18309,5.93132 0,2.12425 -2.59382,6.72373 -4.49384,7.96867 -1.17647,0.77085 -2.83409,1.04179 -5.36465,0.87684 -3.43939,-0.22418 -3.67674,-0.13512 -3.90241,1.46424 -0.3373,2.39047 1.01685,6.51074 2.61518,7.95721 3.37692,3.05608 9.81056,3.90067 15.91163,2.08885 z"
         id="path1323"
         transform="scale(0.26458333)" />
    </g>
    <path
       style="fill:none;fill-opacity:1;stroke-width:0.693365"
       d="m 63.010989,236.08988 c -5.974044,-3.11181 -8.928548,-8.04849 -8.928548,-14.91873 0,-4.71164 1.100257,-7.44761 4.411153,-10.96909 3.308208,-3.51861 6.669213,-4.96613 11.530881,-4.96613 6.932134,0 12.259577,3.21989 15.393871,9.304 1.705403,3.31043 1.892042,9.40602 0.396025,12.93409 -3.788177,8.93371 -14.455497,12.96417 -22.803382,8.61586 z"
       id="path1768"
       transform="scale(0.26458333)" />
    <path
       style="fill:none;fill-opacity:1;stroke-width:0.693365"
       d="m 62.566246,165.68795 c -6.553066,-3.7581 -9.89796,-10.65521 -8.404585,-17.3301 3.527124,-15.76506 23.863098,-18.67522 30.840742,-4.41343 4.247544,8.68167 0.966379,18.18993 -7.663913,22.20871 -5.116374,2.3825 -10.079214,2.22622 -14.772244,-0.46518 z"
       id="path1807"
       transform="scale(0.26458333)" />
    <path
       style="fill:none;fill-opacity:1;stroke-width:0.693365"
       d="m 62.566246,165.68795 c -6.553066,-3.7581 -9.89796,-10.65521 -8.404585,-17.3301 3.527124,-15.76506 23.863098,-18.67522 30.840742,-4.41343 4.247544,8.68167 0.966379,18.18993 -7.663913,22.20871 -5.116374,2.3825 -10.079214,2.22622 -14.772244,-0.46518 z"
       id="path1846"
       transform="scale(0.26458333)" />
    <path
       style="fill:none;fill-opacity:1;stroke-width:0.693365"
       d="m 62.566246,165.68795 c -6.553066,-3.7581 -9.89796,-10.65521 -8.404585,-17.3301 3.527124,-15.76506 23.863098,-18.67522 30.840742,-4.41343 4.247544,8.68167 0.966379,18.18993 -7.663913,22.20871 -5.116374,2.3825 -10.079214,2.22622 -14.772244,-0.46518 z"
       id="path2041"
       transform="scale(0.26458333)" />
    <path
       style="fill:none;fill-opacity:1;stroke-width:0.693365"
       d="m 62.566246,165.68795 c -6.553066,-3.7581 -9.89796,-10.65521 -8.404585,-17.3301 3.527124,-15.76506 23.863098,-18.67522 30.840742,-4.41343 4.247544,8.68167 0.966379,18.18993 -7.663913,22.20871 -5.116374,2.3825 -10.079214,2.22622 -14.772244,-0.46518 z"
       id="path2080"
       transform="scale(0.26458333)" />
    <path
       style="fill:none;fill-opacity:1;stroke-width:0.693365"
       d="m 62.566246,165.68795 c -6.553066,-3.7581 -9.89796,-10.65521 -8.404585,-17.3301 3.527124,-15.76506 23.863098,-18.67522 30.840742,-4.41343 4.247544,8.68167 0.966379,18.18993 -7.663913,22.20871 -5.116374,2.3825 -10.079214,2.22622 -14.772244,-0.46518 z"
       id="path2119"
       transform="scale(0.26458333)" />
    <path
       style="fill:none;fill-opacity:1;stroke-width:0.693365"
       d="m 62.566246,165.68795 c -6.553066,-3.7581 -9.89796,-10.65521 -8.404585,-17.3301 3.527124,-15.76506 23.863098,-18.67522 30.840742,-4.41343 4.247544,8.68167 0.966379,18.18993 -7.663913,22.20871 -5.116374,2.3825 -10.079214,2.22622 -14.772244,-0.46518 z"
       id="path2158"
       transform="scale(0.26458333)" />
    <path
       style="fill:none;fill-opacity:1;stroke-width:0.693365"
       d="m 62.566246,165.68795 c -6.553066,-3.7581 -9.89796,-10.65521 -8.404585,-17.3301 3.527124,-15.76506 23.863098,-18.67522 30.840742,-4.41343 4.247544,8.68167 0.966379,18.18993 -7.663913,22.20871 -5.116374,2.3825 -10.079214,2.22622 -14.772244,-0.46518 z"
       id="path2197"
       transform="scale(0.26458333)" />
    <path
       style="fill:none;fill-opacity:1;stroke-width:0.693365"
       d="m 62.566246,165.68795 c -6.553066,-3.7581 -9.89796,-10.65521 -8.404585,-17.3301 3.527124,-15.76506 23.863098,-18.67522 30.840742,-4.41343 4.247544,8.68167 0.966379,18.18993 -7.663913,22.20871 -5.116374,2.3825 -10.079214,2.22622 -14.772244,-0.46518 z"
       id="path2236"
       transform="scale(0.26458333)" />
    <path
       style="fill:none;fill-opacity:1;stroke-width:0.693365"
       d="m 62.566246,165.68795 c -6.553066,-3.7581 -9.89796,-10.65521 -8.404585,-17.3301 3.527124,-15.76506 23.863098,-18.67522 30.840742,-4.41343 4.247544,8.68167 0.966379,18.18993 -7.663913,22.20871 -5.116374,2.3825 -10.079214,2.22622 -14.772244,-0.46518 z"
       id="path2275"
       transform="scale(0.26458333)" />
    <path
       style="fill:none;fill-opacity:1;stroke-width:0.693365"
       d="m 62.566246,165.68795 c -6.553066,-3.7581 -9.89796,-10.65521 -8.404585,-17.3301 3.527124,-15.76506 23.863098,-18.67522 30.840742,-4.41343 4.247544,8.68167 0.966379,18.18993 -7.663913,22.20871 -5.116374,2.3825 -10.079214,2.22622 -14.772244,-0.46518 z"
       id="path2314"
       transform="scale(0.26458333)" />
    <path
       style="fill:none;fill-opacity:1;stroke-width:0.693365"
       d="m 62.566246,165.68795 c -6.553066,-3.7581 -9.89796,-10.65521 -8.404585,-17.3301 3.527124,-15.76506 23.863098,-18.67522 30.840742,-4.41343 4.247544,8.68167 0.966379,18.18993 -7.663913,22.20871 -5.116374,2.3825 -10.079214,2.22622 -14.772244,-0.46518 z"
       id="path2353"
       transform="scale(0.26458333)" />
    <path
       style="fill:none;fill-opacity:1;stroke-width:0.693365"
       d="m 62.566246,165.68795 c -6.553066,-3.7581 -9.89796,-10.65521 -8.404585,-17.3301 3.527124,-15.76506 23.863098,-18.67522 30.840742,-4.41343 4.247544,8.68167 0.966379,18.18993 -7.663913,22.20871 -5.116374,2.3825 -10.079214,2.22622 -14.772244,-0.46518 z"
       id="path2392"
       transform="scale(0.26458333)" />
    <path
       style="fill:none;fill-opacity:1;stroke-width:0.693365"
       d="m 62.566246,165.68795 c -6.553066,-3.7581 -9.89796,-10.65521 -8.404585,-17.3301 3.527124,-15.76506 23.863098,-18.67522 30.840742,-4.41343 4.247544,8.68167 0.966379,18.18993 -7.663913,22.20871 -5.116374,2.3825 -10.079214,2.22622 -14.772244,-0.46518 z"
       id="path2431"
       transform="scale(0.26458333)" />
    <path
       style="fill:#884fe4;fill-opacity:1;stroke-width:0.693365"
       d="m 62.566246,165.68795 c -6.553066,-3.7581 -9.89796,-10.65521 -8.404585,-17.3301 3.527124,-15.76506 23.863098,-18.67522 30.840742,-4.41343 4.247544,8.68167 0.966379,18.18993 -7.663913,22.20871 -5.116374,2.3825 -10.079214,2.22622 -14.772244,-0.46518 z"
       id="path2470"
       transform="scale(0.26458333)" />
    <path
       style="fill:#884fe4;fill-opacity:1;stroke-width:0.693365"
       d="m 116.13857,166.38117 c -4.35632,-2.24624 -8.43527,-7.05066 -9.25313,-10.8989 -1.72752,-8.12836 2.15431,-15.67188 9.9465,-19.32893 l 3.46682,-1.62706 82.16371,-2.6e-4 82.16371,-2.7e-4 3.5966,2.06273 c 8.01629,4.59753 11.23461,13.1977 7.78565,20.80529 -1.68689,3.72089 -3.49038,5.77609 -7.22206,8.22999 l -2.77346,1.8238 -83.55044,0.18184 c -83.21348,0.1811 -83.56162,0.17607 -86.3239,-1.24823 z"
       id="path2657"
       transform="scale(0.26458333)" />
    <path
       style="fill:#884fe4;fill-opacity:1;stroke-width:0.693365"
       d="m 118.91203,97.116068 c -9.81705,-2.389948 -14.97935,-13.462293 -10.68889,-22.926053 1.76418,-3.891372 3.66762,-5.960133 7.22207,-7.849348 2.69415,-1.431962 3.94316,-1.492689 43.6808,-2.12376 25.66852,-0.407641 56.79275,-0.403602 83.55044,0.01084 41.72604,0.646286 42.70459,0.692756 45.50267,2.160833 5.21226,2.73473 9.23077,9.06429 9.25908,14.584008 0.0284,5.539072 -3.46029,11.348534 -8.87849,14.78465 l -3.16498,2.007172 -82.2013,-0.07097 c -45.21072,-0.03904 -83.13735,-0.298853 -84.2814,-0.577372 z"
       id="path2696"
       transform="scale(0.26458333)" />
    <path
       style="fill:#884fe4;fill-opacity:1;stroke-width:0.693365"
       d="M 64.650949,96.728468 C 55.695901,92.836532 51.569697,83.190615 55.275881,74.812171 58.301798,67.971584 64.861796,63.9702 71.8655,64.693046 c 8.347451,0.861533 14.212905,7.121394 14.668174,15.654496 0.273726,5.130441 -0.713784,8.222396 -3.795939,11.885329 -3.981911,4.732233 -12.608606,6.876458 -18.086786,4.495597 z"
       id="path2735"
       transform="scale(0.26458333)" />
    <path
       style="fill:#884fe4;fill-opacity:1;stroke-width:0.693365"
       d="m 63.010989,236.08988 c -5.974044,-3.11181 -8.928548,-8.04849 -8.928548,-14.91873 0,-4.71164 1.100257,-7.44761 4.411153,-10.96909 3.308208,-3.51861 6.669213,-4.96613 11.530881,-4.96613 6.932134,0 12.259577,3.21989 15.393871,9.304 1.705403,3.31043 1.892042,9.40602 0.396025,12.93409 -3.788177,8.93371 -14.455497,12.96417 -22.803382,8.61586 z"
       id="path2774"
       transform="scale(0.26458333)" />
    <path
       style="fill:#884fe4;fill-opacity:1;stroke-width:0.693365"
       d="m 116.83194,236.73471 c -4.48178,-2.38433 -5.68181,-3.45286 -8.07861,-7.19343 -1.66105,-2.59231 -1.97518,-3.81119 -1.97518,-7.66421 0,-6.3895 2.35493,-11.04475 7.1944,-14.22195 l 3.55275,-2.33244 83.57011,-0.17962 83.57009,-0.17963 3.25764,1.577 c 5.56498,2.69396 9.48659,8.75478 9.51506,14.70548 0.0198,4.1247 -3.32423,10.93402 -6.59451,13.42838 -1.49273,1.13856 -3.91985,2.08246 -6.38748,2.48408 -2.19642,0.35747 -39.86991,0.82094 -84.06869,1.03423 l -80.08876,0.38647 z"
       id="path2813"
       transform="scale(0.26458333)" />
    <path
       style="fill:#884fe4;fill-opacity:1;stroke-width:0.693365"
       d="m 336.4539,236.82405 c -11.31243,-2.74026 -15.79797,-10.79921 -14.0204,-25.18978 2.13639,-17.29543 12.08777,-44.63916 24.32757,-66.84561 2.24479,-4.07269 4.08143,-7.73885 4.08143,-8.14704 0,-2.03026 -14.47285,0.57837 -19.11037,3.44451 -1.27272,0.78658 -2.95534,2.46781 -3.73917,3.73607 -1.31082,2.12096 -1.34178,2.46573 -0.3859,4.29857 3.3276,6.3805 -0.86859,11.35678 -9.57118,11.3505 -11.16562,-0.008 -14.66715,-12.11513 -6.22083,-21.50948 7.63371,-8.49052 19.38338,-12.43732 37.18169,-12.4896 l 9.12609,-0.0268 5.0187,-7.45354 c 7.16075,-10.6348 14.33679,-19.444215 22.89798,-28.109918 11.74687,-11.890271 22.41016,-19.17942 31.71268,-21.677959 6.2602,-1.681412 22.31775,-0.900793 23.58303,1.14646 0.32211,0.521177 -4.24918,22.54006 -21.89348,105.456147 l -8.50064,39.94715 -6.9076,0.38064 c -9.86232,0.54344 -19.9095,-0.13521 -19.9095,-1.3448 0,-0.52236 2.95349,-15.14194 6.56331,-32.48796 3.60981,-17.34602 6.76682,-33.07239 7.01556,-34.94748 l 0.45225,-3.40925 -2.68203,-1.3645 c -4.00693,-2.03854 -11.53486,-4.20623 -18.54462,-5.33997 -3.42943,-0.55467 -6.2888,-0.9363 -6.35415,-0.84806 -0.0654,0.0882 -1.84079,4.21662 -3.94542,9.17417 -9.41031,22.16646 -16.99945,46.57467 -20.37276,65.52296 -1.37744,7.73725 -1.62647,23.00209 -0.42134,25.82783 l 0.81319,1.90676 -3.27632,-0.0589 c -1.80198,-0.0325 -4.91497,-0.4559 -6.91777,-0.94105 z m 63.91747,-102.92911 c 1.00061,-1.61903 11.72212,-53.460858 11.17044,-54.012541 -1.79657,-1.796571 -15.64215,12.083612 -22.72875,22.785561 -5.06728,7.65244 -13.7028,23.21594 -13.7028,24.6961 0,0.38455 3.35415,1.5718 7.45367,2.63835 4.09952,1.06655 9.01374,2.49489 10.92049,3.17409 3.88836,1.38507 6.31829,1.63855 6.88695,0.71844 z"
       id="path2852"
       transform="scale(0.26458333)" />
    <path
       style="fill:#884fe4;fill-opacity:1;stroke-width:0.693365"
       d="m 571.33245,264.58956 c 0,-0.20305 0.95651,-4.82628 2.12558,-10.27385 2.15546,-10.04393 9.66162,-46.87185 9.66162,-47.40339 0,-0.87484 -1.84312,-0.0326 -3.92091,1.79172 -5.67445,4.98224 -14.66119,7.99369 -22.16182,7.42642 -8.15272,-0.61659 -13.78353,-3.87835 -17.43731,-10.10091 -1.69203,-2.88161 -1.91546,-4.02277 -2.12383,-10.84741 -0.21439,-7.02151 0.0507,-8.96622 3.33963,-24.49619 3.41609,-16.13064 5.05954,-26.95596 4.50868,-29.69855 -0.14078,-0.70094 -0.43871,-2.1404 -0.66205,-3.19882 -0.69867,-3.31091 -2.68597,-4.66257 -6.85524,-4.66257 -4.75865,0 -7.36852,1.71439 -11.24833,7.38888 -3.38132,4.94541 -4.99291,11.01384 -13.50522,50.85375 -2.72961,12.77524 -5.1121,23.38372 -5.29444,23.57439 -0.47123,0.49277 -25.88345,0.21807 -26.38675,-0.28523 -0.22902,-0.22901 2.02678,-12.03706 5.01288,-26.2401 8.07588,-38.41196 8.79104,-42.45846 8.52809,-48.25297 -0.28227,-6.22036 -1.08992,-7.03872 -6.94656,-7.03872 -3.8482,0 -4.22816,0.15976 -7.37038,3.09893 -5.53224,5.17476 -6.51972,7.97769 -12.85986,36.50211 -3.16893,14.25705 -6.49124,29.54307 -7.38291,33.96892 l -1.62122,8.04701 -8.70276,0.4439 c -9.11273,0.46481 -18.75654,0.59218 -18.75654,0.24774 0,-0.23113 19.91375,-94.32231 20.46503,-96.69593 0.36047,-1.55206 0.43165,-1.56007 13.86973,-1.56007 8.07651,0 13.5074,0.26506 13.5074,0.65924 0,0.36258 -0.33793,2.23493 -0.75095,4.16078 -0.41302,1.92585 -0.63752,3.84182 -0.49889,4.25771 0.13863,0.41589 1.80261,-0.5348 3.69774,-2.11263 1.89513,-1.57784 5.76886,-4.02447 8.60828,-5.43697 4.86987,-2.42257 5.53818,-2.56818 11.78719,-2.56818 5.85857,0 7.08372,0.22545 10.59474,1.94957 4.39732,2.15934 6.24312,4.32957 8.58678,10.09601 0.86605,2.13088 1.83207,3.96014 2.1467,4.06502 0.31463,0.10488 1.81525,-1.38773 3.3347,-3.31691 5.40856,-6.867 12.95158,-11.4897 20.16521,-12.35814 17.60743,-2.11973 27.48684,8.02794 25.24588,25.93139 -0.89296,7.1341 -1.53736,10.33418 -5.37152,26.67546 -3.89183,16.58702 -4.33034,23.74469 -1.6311,26.62417 1.97795,2.11004 5.1205,2.83189 9.48149,2.17791 7.03171,-1.05447 12.07094,-8.9306 15.83468,-24.74904 1.30166,-5.47065 4.93413,-21.99313 8.07218,-36.71661 l 5.70553,-26.76997 6.65354,-0.43706 c 8.01212,-0.5263 20.18467,0.16865 20.18467,1.15236 0,0.38647 -0.52715,3.45258 -1.17145,6.81358 -0.64429,3.361 -0.99203,6.29033 -0.77274,6.50962 0.21929,0.21929 2.26591,-0.80813 4.54806,-2.28315 9.22994,-5.9656 21.37887,-7.35509 29.51297,-3.37545 9.07123,4.43814 12.91945,13.23167 12.93573,29.55934 0.0232,23.23397 -7.44277,44.85572 -19.74719,57.18883 -6.01078,6.0248 -11.93335,9.0968 -20.37188,10.56675 -10.33157,1.79972 -18.10962,0.39037 -22.77725,-4.12713 -1.23368,-1.19399 -2.43588,-1.97806 -2.67157,-1.74238 -0.23569,0.23569 -2.68427,11.06705 -5.44128,24.06969 -2.75702,13.00263 -5.29899,23.90356 -5.64881,24.22429 -0.34983,0.32073 -6.2523,1.89447 -13.11661,3.49721 -6.86431,1.60273 -13.02659,3.06723 -13.69395,3.25444 -0.66736,0.1872 -1.21339,0.17424 -1.21339,-0.0288 z m 56.17545,-65.3153 c 9.47263,-2.81307 17.7293,-17.12976 21.10653,-36.59774 1.56121,-8.99955 1.42682,-24.18704 -0.24662,-27.8716 -1.80338,-3.97062 -4.41495,-5.8391 -8.16136,-5.8391 -6.4264,0 -11.91965,3.70954 -14.11239,9.52997 -2.8837,7.65455 -12.83761,55.45946 -12.13262,58.2684 0.83871,3.34165 6.93959,4.4721 13.54646,2.51007 z"
       id="path2891"
       transform="scale(0.26458333)" />
    <path
       style="fill:#884fe4;fill-opacity:1;stroke-width:0.693365"
       d="m 756.94093,263.49799 c -4.958,-1.93721 -7.78379,-4.42056 -9.86082,-8.66586 -1.64343,-3.35904 -1.82945,-4.43519 -1.58905,-9.19285 0.16642,-3.29347 0.76194,-6.3927 1.53173,-7.97148 3.31791,-6.80482 11.30539,-12.7972 23.48517,-17.61906 6.40047,-2.53389 6.80398,-2.81418 7.45298,-5.17723 1.09782,-3.9972 1.62328,-8.94222 0.9502,-8.94222 -0.34055,0 -2.33305,1.40617 -4.42777,3.1248 -13.87753,11.38599 -31.6204,9.20391 -37.76522,-4.6445 -1.06744,-2.40564 -2.04073,-4.49039 -2.16289,-4.63278 -0.12215,-0.14239 -2.65371,1.9882 -5.62568,4.73464 -8.03087,7.42144 -18.13289,11.81831 -27.15309,11.81831 -1.33501,0 -4.31984,-0.52915 -6.63297,-1.17589 -5.54812,-1.55123 -10.68878,-6.46655 -12.5158,-11.96719 -1.9108,-5.75288 -1.11658,-17.17406 2.34063,-33.65903 10.56979,-50.39985 18.81481,-87.274042 19.7172,-88.18119 0.68323,-0.686838 8.03412,-1.940792 23.86733,-4.071414 1.72603,-0.232266 2.9468,-0.116004 2.9468,0.280642 0,1.00899 -4.49425,22.768952 -13.91187,67.357522 -9.13545,43.25265 -9.88086,48.61478 -7.14007,51.36242 3.21478,3.22284 11.21435,2.41258 16.89175,-1.71093 6.17805,-4.48712 7.38991,-8.18971 16.27427,-49.72287 3.18601,-14.89417 5.8979,-27.1798 6.02642,-27.30139 0.12851,-0.12159 6.32734,-0.33075 13.77516,-0.46479 l 13.5415,-0.24371 -3.67418,16.98743 c -10.43329,48.23795 -11.8353,57.27379 -9.56717,61.65986 1.56033,3.01735 5.1846,3.72803 9.60116,1.88268 3.21638,-1.3439 8.48934,-7.51296 10.09907,-11.81537 1.23728,-3.30694 5.75267,-22.92628 12.96699,-56.34156 l 2.56806,-11.89473 9.08972,-0.46746 c 4.99935,-0.2571 11.14397,-0.36472 13.65472,-0.23916 l 4.56499,0.22831 -9.58152,44.72202 c -5.26984,24.59711 -9.58618,45.26804 -9.59189,45.9354 -0.0279,3.26152 9.31632,-1.1672 15.34016,-7.27052 3.69931,-3.74812 3.9539,-4.22705 4.42294,-8.32038 0.81314,-7.09622 2.79517,-11.38051 7.37894,-15.95007 3.19196,-3.18207 5.02457,-5.96214 8.4818,-12.86692 4.89255,-9.77141 12.7115,-28.93718 16.64307,-40.79538 2.31859,-6.9932 2.73608,-7.75441 4.43576,-8.0877 5.07332,-0.99483 25.7962,-3.49233 26.13836,-3.15016 0.21528,0.21527 0.84977,8.15697 1.40998,17.64822 0.56022,9.49124 1.4829,23.96511 2.05042,32.16414 0.56751,8.19904 1.03641,18.26149 1.042,22.36101 0.006,4.09952 0.26368,7.45367 0.57355,7.45367 0.48985,0 9.42752,-5.85353 13.88643,-9.09463 1.33716,-0.97195 2.32212,-4.75015 7.41104,-28.42795 3.2279,-15.01885 5.87,-27.85304 5.87131,-28.5204 0.002,-0.97068 -0.60307,-1.21339 -3.02464,-1.21339 h -3.02704 l 0.51219,-2.80094 c 0.2817,-1.54052 0.62983,-2.91346 0.7736,-3.05097 0.14379,-0.13752 1.66549,-0.52167 3.38156,-0.85368 l 3.12014,-0.60364 1.48546,-6.22583 c 0.817,-3.4242 2.1869,-9.39961 3.04421,-13.278684 l 1.55876,-7.052857 5.96952,-1.084223 c 10.07207,-1.829354 20.97984,-3.312386 21.38473,-2.907493 0.21142,0.211422 -0.80164,6.085912 -2.25125,13.054421 -1.44961,6.968506 -2.849,13.798876 -3.10975,15.178586 l -0.47409,2.50857 5.49075,0.37634 c 3.01991,0.20699 5.62751,0.51311 5.79466,0.68027 0.16716,0.16715 0.0518,1.52106 -0.25634,3.00868 l -0.56026,2.70477 -6.03115,0.20024 c -5.57199,0.185 -6.05873,0.31697 -6.39337,1.73341 -0.19922,0.84325 -2.23614,10.42558 -4.52648,21.29407 -8.77087,41.62084 -9.6417,47.88533 -7.02097,50.50606 0.75154,0.75155 2.78774,1.45608 4.94758,1.71188 2.01872,0.23909 3.8546,0.61891 4.07974,0.84404 0.5743,0.5743 -2.96108,7.14102 -5.50827,10.2312 -3.08056,3.73726 -7.52726,6.1087 -12.24963,6.53279 -4.86818,0.43718 -8.50543,-0.48288 -12.88238,-3.25865 -4.47754,-2.83958 -6.52491,-7.30809 -7.5362,-16.44829 -0.41282,-3.73105 -0.83129,-6.88224 -0.92992,-7.00261 -0.0986,-0.12038 -2.78498,1.77509 -5.96964,4.21215 -3.18466,2.43706 -8.67062,6.43573 -12.19102,8.88593 -3.52041,2.4502 -8.04462,5.60604 -10.05379,7.01299 -4.93704,3.45721 -12.97047,6.02542 -20.46546,6.54262 -11.26783,0.77754 -19.0216,-1.83517 -25.92065,-8.73422 -2.45735,-2.45735 -4.52176,-3.99002 -4.99534,-3.70865 -0.44392,0.26375 -2.21119,1.6421 -3.92727,3.06298 -3.9154,3.24189 -10.38796,6.98284 -14.90734,8.61601 -1.90675,0.68904 -3.71872,1.46873 -4.0266,1.73264 -0.30788,0.26392 -1.47886,4.65855 -2.60217,9.76585 -1.12332,5.10729 -2.55292,10.84607 -3.17689,12.75282 -4.18286,12.78211 -12.00479,20.74439 -23.77503,24.20163 -5.25525,1.54361 -14.695,1.41375 -18.98158,-0.26112 z m 9.41388,-14.5328 c 2.81442,-2.4711 5.50613,-7.79713 7.40664,-14.65535 2.41161,-8.70257 2.01618,-9.04697 -5.98495,-5.21254 -5.34254,2.56036 -10.12214,6.44164 -11.70726,9.50693 -1.23514,2.3885 -1.26088,8.17235 -0.0435,9.77513 2.33922,3.07978 7.17617,3.35411 10.32908,0.58583 z m 90.17145,-48.30055 c 3.93211,-1.3398 8.16461,-5.85186 9.42009,-10.04227 1.19168,-3.97747 1.02769,-12.16911 -0.61826,-30.88492 -2.02696,-23.04799 -2.21641,-24.60448 -2.96441,-24.35515 -0.37326,0.12442 -1.71574,3.13086 -2.9833,6.68098 -1.26756,3.55012 -4.85316,12.02891 -7.968,18.84175 l -5.66334,12.38699 2.15799,2.158 c 2.76876,2.76876 2.90869,6.1716 0.40527,9.8557 -1.84117,2.70952 -2.86772,3.15519 -7.95437,3.45329 -3.05097,0.17879 -3.12483,0.23899 -3.33127,2.71479 -0.3423,4.1048 1.43283,7.35773 4.86524,8.91557 3.6903,1.67488 10.16906,1.79675 14.63436,0.27527 z"
       id="path2930"
       transform="scale(0.26458333)" />
  </g>
</svg>
