<?xml version="1.0" encoding="UTF-8" standalone="no"?>
<!-- Created with Inkscape (http://www.inkscape.org/) -->

<svg
   width="512mm"
   height="512mm"
   viewBox="0 0 512 512"
   version="1.1"
   id="svg861"
   inkscape:version="1.1 (c68e22c387, 2021-05-23)"
   sodipodi:docname="favicon.svg"
   xmlns:inkscape="http://www.inkscape.org/namespaces/inkscape"
   xmlns:sodipodi="http://sodipodi.sourceforge.net/DTD/sodipodi-0.dtd"
   xmlns="http://www.w3.org/2000/svg"
   xmlns:svg="http://www.w3.org/2000/svg">
  <sodipodi:namedview
     id="namedview863"
     pagecolor="#ffffff"
     bordercolor="#666666"
     borderopacity="1.0"
     inkscape:pageshadow="2"
     inkscape:pageopacity="0.0"
     inkscape:pagecheckerboard="0"
     inkscape:document-units="mm"
     showgrid="false"
     width="512mm"
     inkscape:zoom="0.38885732"
     inkscape:cx="343.31358"
     inkscape:cy="821.63812"
     inkscape:window-width="2560"
     inkscape:window-height="1387"
     inkscape:window-x="2552"
     inkscape:window-y="-8"
     inkscape:window-maximized="1"
     inkscape:current-layer="layer1" />
  <defs
     id="defs858" />
  <g
     inkscape:label="Layer 1"
     inkscape:groupmode="layer"
     id="layer1">
    <path
       d="M 146.43673,75.092335 H 475.1265 a 36.521319,36.18167 0 0 1 0,72.363335 H 146.43673 a 36.521319,36.18167 0 1 1 0,-72.363335 z m 0,289.451995 H 475.1265 a 36.521315,36.18167 0 0 1 0,72.36333 H 146.43673 a 36.521315,36.18167 0 1 1 0,-72.36333 z m 0,-144.72532 H 475.1265 a 36.521084,36.181444 0 0 1 0,72.36196 H 146.43673 a 36.521084,36.181444 0 1 1 0,-72.36196 z M 36.873497,75.092335 a 36.521319,36.18167 0 1 1 0,72.363335 36.521319,36.18167 0 0 1 0,-72.363335 z m 0,289.451995 a 36.521315,36.18167 0 1 1 0,72.36333 36.521315,36.18167 0 0 1 0,-72.36333 z m 0,-144.72532 a 36.521084,36.181444 0 1 1 0,72.36196 36.521084,36.181444 0 0 1 0,-72.36196 z"
       id="path1474"
       style="display:none;stroke-width:36.3509" />
    <g
       id="g2699"
       transform="translate(-4.1550027e-8,-0.05701813)">
      <path
         style="fill:#884fe4;fill-opacity:1;stroke-width:2.57164"
         d="M 120.73992,552.67387 C 80.018755,546.88249 37.156803,515.87211 18.016543,478.3541 6.3471882,455.48028 1.914519,417.0263 7.9342466,390.88887 17.737545,348.32333 54.263882,309.21919 98.63305,293.78912 188.7419,262.45235 285.73136,343.17916 272.4533,438.46416 262.51297,509.79727 192.07919,562.81977 120.73992,552.67387 Z"
         id="path2379"
         transform="scale(0.26458333)" />
      <path
         style="fill:#884fe4;fill-opacity:1;stroke-width:2.57164"
         d="M 105.85193,1098.0058 C 2.646429,1070.9721 -31.023865,943.78968 45.830877,871.28882 c 28.086561,-26.49544 56.673003,-38.01729 94.323353,-38.01729 35.6726,0 65.19716,11.16312 90.45849,34.20199 29.7538,27.1361 44.89231,60.50708 45.12026,99.46211 0.2216,37.86867 -12.28934,68.28697 -39.14235,95.16817 -35.0282,35.065 -83.31345,48.3245 -130.7387,35.902 z"
         id="path2418"
         transform="scale(0.26458333)" />
      <path
         style="fill:#884fe4;fill-opacity:1;stroke-width:2.57164"
         d="m 120.73992,1648.3128 c -31.223756,-4.7063 -64.867656,-22.7183 -84.288152,-45.1256 -68.043875,-78.5085 -25.815176,-199.453 77.262862,-221.2835 67.08595,-14.2079 140.09023,31.2903 157.50847,98.1635 4.93073,18.9303 5.02413,49.6197 0.20625,67.7217 -17.60261,66.1356 -84.17966,110.5487 -150.6893,100.5239 z"
         id="path2457"
         transform="scale(0.26458333)" />
      <path
         style="fill:#884fe4;fill-opacity:1;stroke-width:2.57164"
         d="m 533.22048,1648.1959 c -60.2923,-10.1645 -106.01098,-56.1324 -114.62786,-115.2527 -10.10544,-69.3334 37.47853,-135.8453 107.85533,-150.758 26.49312,-5.6138 1268.81965,-5.549 1295.33195,0.068 49.2726,10.4384 90.0824,46.9079 104.4144,93.3095 6.2457,20.2213 6.7517,52.3038 1.1632,73.7593 -10.992,42.2012 -47.0351,79.6748 -91.023,94.6355 l -16.9011,5.7482 -636.4802,0.3624 c -350.31076,0.1996 -642.43874,-0.6421 -649.73272,-1.8718 z"
         id="path2496"
         transform="scale(0.26458333)" />
      <path
         style="fill:#884fe4;fill-opacity:1;stroke-width:2.57164"
         d="M 523.09913,1099.4164 C 473.86147,1088.7032 429.60135,1044.4327 419.44712,995.73997 405.23555,927.59108 443.67705,862.2508 511.60714,839.09254 l 16.86433,-5.74927 644.56713,-0.0664 c 633.4283,-0.0652 644.8497,0.0209 660.9108,4.98348 69.4376,21.45495 110.8906,92.86521 93.4145,160.92334 -6.5985,25.69681 -16.2366,42.31631 -36.1419,62.32131 -20.8408,20.9453 -44.8592,33.998 -71.618,38.9204 -24.3767,4.4842 -1275.73404,3.5104 -1296.50487,-1.009 z"
         id="path2535"
         transform="scale(0.26458333)" />
      <path
         style="fill:#884fe4;fill-opacity:1;stroke-width:2.57164"
         d="M 520.00001,551.4706 C 471.14605,538.32088 431.99321,498.27893 420.55898,449.77136 404.14665,380.14513 449.251,308.04208 520.89105,289.38221 c 13.34151,-3.47502 88.91523,-3.93047 652.18925,-3.93047 452.2837,0 641.0524,0.81835 650.7269,2.82102 61.6849,12.7692 107.4924,69.01798 107.4924,131.99407 0,62.29297 -43.0478,117.09062 -103.1048,131.24707 -24.1609,5.6951 -1287.03063,5.65331 -1308.19479,-0.0432 z"
         id="path2574"
         transform="scale(0.26458333)" />
    </g>
  </g>
</svg>
